<?xml version="1.0" encoding="UTF-8"?><svg id="a" xmlns="http://www.w3.org/2000/svg" width="1275.50821" height="442.80384" viewBox="0 0 1275.50821 442.80384"><defs><style>.c{fill:#fff;}.d{fill:#c1272d;}.e,.f,.g,.h,.i,.j{stroke:#000;stroke-linecap:round;}.e,.f,.h{stroke-width:8px;}.e,.g,.h,.i,.j{fill:none;}.e,.g,.j{stroke-miterlimit:10;}.f,.h,.i{stroke-linejoin:round;}.f,.k{fill:#b3b3b3;}.l{fill:#1b75bb;}.m{fill:#a71d33;}.n{fill:#009345;}.g{stroke-width:7px;}.i{stroke-dasharray:0 4;}.i,.j{stroke-width:3px;}.o{fill:#f6921e;}</style></defs><g><rect class="k" x="945.68167" y="2.76518" width="133" height="133" rx="9.5" ry="9.5"/><path d="M1069.18167,5.26518c3.85986,0,7,3.14017,7,7V126.26518c0,3.85982-3.14014,7-7,7h-114c-3.85986,0-7-3.14018-7-7V12.26518c0-3.85983,3.14014-7,7-7h114m0-5h-114c-6.59998,0-12,5.4-12,12V126.26518c0,6.60001,5.40002,12,12,12h114c6.59998,0,12-5.39999,12-12V12.26518c0-6.6-5.40002-12-12-12h0Z"/></g><g><rect class="l" x="240.68175" y="152.76527" width="58" height="58" rx="9.5" ry="9.5"/><path d="M289.18166,155.26519c3.85983,0,7,3.14018,7,7v38.99998c0,3.85983-3.14017,7-7,7h-38.99998c-3.85982,0-7-3.14017-7-7v-38.99998c0-3.85982,3.14018-7,7-7h38.99998m0-5h-38.99998c-6.60002,0-12,5.39998-12,12v38.99998c0,6.60001,5.39998,12,12,12h38.99998c6.60001,0,12-5.39999,12-12v-38.99998c0-6.60002-5.39999-12-12-12h0Z"/></g><g><rect class="o" x="315.68175" y="152.76527" width="58" height="58" rx="9.5" ry="9.5"/><path d="M364.18166,155.26519c3.85983,0,7,3.14018,7,7v38.99998c0,3.85983-3.14017,7-7,7h-39c-3.85983,0-7-3.14017-7-7v-38.99998c0-3.85982,3.14017-7,7-7h39m0-5h-39c-6.59998,0-12,5.39998-12,12v38.99998c0,6.60001,5.40002,12,12,12h39c6.60001,0,12-5.39999,12-12v-38.99998c0-6.60002-5.39999-12-12-12h0Z"/></g><g><rect class="n" x="390.68175" y="152.76527" width="58" height="58" rx="9.5" ry="9.5"/><path d="M439.18166,155.26519c3.85983,0,7,3.14018,7,7v38.99998c0,3.85983-3.14017,7-7,7h-39c-3.85983,0-7-3.14017-7-7v-38.99998c0-3.85982,3.14017-7,7-7h39m0-5h-39c-6.59998,0-12,5.39998-12,12v38.99998c0,6.60001,5.40002,12,12,12h39c6.60001,0,12-5.39999,12-12v-38.99998c0-6.60002-5.39999-12-12-12h0Z"/></g><g><rect class="m" x="240.68175" y="77.76527" width="58" height="58" rx="9.5" ry="9.5"/><path d="M289.18166,80.26519c3.85983,0,7,3.14018,7,7v39c0,3.85982-3.14017,7-7,7h-38.99998c-3.85982,0-7-3.14018-7-7v-39c0-3.85982,3.14018-7,7-7h38.99998m0-5h-38.99998c-6.60002,0-12,5.39999-12,12v39c0,6.60001,5.39998,12,12,12h38.99998c6.60001,0,12-5.39999,12-12v-39c0-6.60001-5.39999-12-12-12h0Z"/></g><g><rect class="l" x="315.68175" y="77.76527" width="58" height="58" rx="9.5" ry="9.5"/><path d="M364.18166,80.26519c3.85983,0,7,3.14018,7,7v39c0,3.85982-3.14017,7-7,7h-39c-3.85983,0-7-3.14018-7-7v-39c0-3.85982,3.14017-7,7-7h39m0-5h-39c-6.59998,0-12,5.39999-12,12v39c0,6.60001,5.40002,12,12,12h39c6.60001,0,12-5.39999,12-12v-39c0-6.60001-5.39999-12-12-12h0Z"/></g><path d="M992.68167,15.20257c1.87915,0,3.63696,.72295,4.94971,2.03571l27.57727,27.57716c2.72925,2.72929,2.72925,7.17021,0,9.89948l-27.57727,27.57719c-1.31274,1.31274-3.07056,2.03572-4.94971,2.03572s-3.63696-.72298-4.94971-2.03575l-27.57727-27.57713c-2.72925-2.72929-2.72925-7.17021,0-9.89948l27.57727-27.57721c1.31274-1.31273,3.07056-2.03568,4.94971-2.03568m0-5.00001c-3.07593,0-6.15186,1.16673-8.48523,3.50017l-27.57727,27.57718c-4.66687,4.66692-4.66687,12.30363,0,16.97055l27.57727,27.57716c2.33337,2.33347,5.4093,3.5002,8.48523,3.5002s6.15186-1.16673,8.48523-3.5002l27.57727-27.57716c4.66687-4.66692,4.66687-12.30363,0-16.97055l-27.57727-27.57718c-2.33337-2.33344-5.4093-3.50017-8.48523-3.50017h0Z"/><path d="M1069.18167,80.26518c3.85986,0,7,3.14018,7,7v39c0,3.85982-3.14014,7-7,7h-39c-3.85986,0-7-3.14018-7-7v-39c0-3.85982,3.14014-7,7-7h39m0-5h-39c-6.59998,0-12,5.39999-12,12v39c0,6.60001,5.40002,12,12,12h39c6.59998,0,12-5.39999,12-12v-39c0-6.60001-5.40002-12-12-12h0Z"/><g><rect class="n" x="870.68126" y="152.76527" width="58" height="58" rx="9.5" ry="9.5"/><path d="M919.18169,155.26519c3.8598,0,7,3.14018,7,7v38.99998c0,3.85983-3.1402,7-7,7h-39c-3.8598,0-7-3.14017-7-7v-38.99998c0-3.85982,3.1402-7,7-7h39m0-5h-39c-6.60004,0-12,5.39998-12,12v38.99998c0,6.60001,5.39996,12,12,12h39c6.59998,0,12-5.39999,12-12v-38.99998c0-6.60002-5.40002-12-12-12h0Z"/></g><g><rect class="o" x="945.68126" y="152.76527" width="58" height="58" rx="9.5" ry="9.5"/><path d="M994.18169,155.26519c3.8598,0,7,3.14018,7,7v38.99998c0,3.85983-3.1402,7-7,7h-39c-3.8598,0-7-3.14017-7-7v-38.99998c0-3.85982,3.1402-7,7-7h39m0-5h-39c-6.60004,0-12,5.39998-12,12v38.99998c0,6.60001,5.39996,12,12,12h39c6.59998,0,12-5.39999,12-12v-38.99998c0-6.60002-5.40002-12-12-12h0Z"/></g><g><rect class="l" x="1020.68126" y="152.76527" width="58" height="58" rx="9.5" ry="9.5"/><path d="M1069.18163,155.26519c3.85986,0,7,3.14018,7,7v38.99998c0,3.85983-3.14014,7-7,7h-39c-3.85974,0-7-3.14017-7-7v-38.99998c0-3.85982,3.14026-7,7-7h39m0-5h-39c-6.59998,0-11.99994,5.39998-11.99994,12v38.99998c0,6.60001,5.39996,12,11.99994,12h39c6.6001,0,12-5.39999,12-12v-38.99998c0-6.60002-5.3999-12-12-12h0Z"/></g><g><rect class="n" x="240.68175" y="2.76527" width="58" height="58" rx="9.5" ry="9.5"/><path d="M289.18166,5.26518c3.85983,0,7,3.14018,7,7V51.26518c0,3.85982-3.14017,7-7,7h-38.99998c-3.85982,0-7-3.14018-7-7V12.26518c0-3.85982,3.14018-7,7-7h38.99998m0-5h-38.99998c-6.60002,0-12,5.4-12,12V51.26518c0,6.6,5.39998,12,12,12h38.99998c6.60001,0,12-5.4,12-12V12.26518c0-6.6-5.39999-12-12-12h0Z"/></g><line class="e" x1="517.60782" y1="309.16862" x2="715.00684" y2="309.16862"/><polygon class="f" points="546.4791 63.22144 617.65018 18.90738 840.56336 63.22144 546.4791 63.22144"/><polyline class="h" points="686.18156 309.16862 619.66445 5.68441 616.97875 5.68441 550.46165 309.16862"/><line class="j" x1="603.81956" y1="65.72323" x2="637.02563" y2="84.89477"/><line class="j" x1="599.61758" y1="84.89477" x2="637.60646" y2="84.89477"/><line class="j" x1="599.61758" y1="84.89477" x2="642.44513" y2="109.62127"/><line class="j" x1="594.19807" y1="109.62127" x2="642.44513" y2="109.62127"/><line class="j" x1="594.19807" y1="109.62127" x2="649.43495" y2="141.51229"/><line class="j" x1="587.20826" y1="141.51229" x2="649.43495" y2="141.51229"/><line class="j" x1="587.20826" y1="141.51229" x2="658.45007" y2="182.64377"/><line class="j" x1="578.19314" y1="182.64377" x2="658.45007" y2="182.64377"/><line class="j" x1="578.19314" y1="182.64377" x2="670.07732" y2="235.69312"/><line class="j" x1="566.56588" y1="235.69312" x2="670.07732" y2="235.69312"/><line class="j" x1="566.56588" y1="235.69312" x2="685.0736" y2="304.11359"/><line class="i" x1="781.66977" y1="64.56429" x2="781.66977" y2="126.90963"/><g><rect class="d" x="752.66955" y="125.1554" width="58" height="58" rx="9.5" ry="9.5"/><path d="M801.16979,127.6556c3.8598,0,7,3.14018,7,7v39c0,3.85982-3.1402,7-7,7h-39c-3.8598,0-7-3.14018-7-7v-39c0-3.85982,3.1402-7,7-7h39m0-5h-39c-6.60004,0-12,5.39999-12,12v39c0,6.60001,5.39996,12,12,12h39c6.59998,0,12-5.39999,12-12v-39c0-6.60001-5.40002-12-12-12h0Z"/></g><g><g><path class="k" d="M1144.94339,244.24373c-9.70898,0-17.6084-7.89941-17.6084-17.6084,0-9.70996,7.89941-17.60938,17.6084-17.60938,9.70996,0,17.60938,7.89941,17.60938,17.60938,0,9.70898-7.89941,17.6084-17.60938,17.6084Z"/><path d="M1144.94363,210.52592c8.88251,0,16.10895,7.22644,16.10895,16.10892s-7.22644,16.10892-16.10895,16.10892-16.10889-7.22644-16.10889-16.10892,7.22644-16.10892,16.10889-16.10892m0-3c-10.55353,0-19.10889,8.55536-19.10889,19.10892s8.55536,19.10892,19.10889,19.10892,19.10895-8.55536,19.10895-19.10892-8.55536-19.10892-19.10895-19.10892h0Z"/></g><g><path class="k" d="M1191.18167,229.5113c-9.70996,0-17.60938-7.89941-17.60938-17.60938,0-9.70898,7.89941-17.6084,17.60938-17.6084s17.60938,7.89941,17.60938,17.6084c0,9.70996-7.89941,17.60938-17.60938,17.60938Z"/><path d="M1191.18167,195.79304c8.88245,0,16.10889,7.22644,16.10889,16.10892s-7.22644,16.10892-16.10889,16.10892-16.10889-7.22644-16.10889-16.10892,7.22644-16.10892,16.10889-16.10892m0-3c-10.55359,0-19.10889,8.55536-19.10889,19.10892s8.5553,19.10892,19.10889,19.10892,19.10889-8.55536,19.10889-19.10892-8.5553-19.10892-19.10889-19.10892h0Z"/></g><g><path class="k" d="M1237.41995,244.24373c-9.70996,0-17.60938-7.89941-17.60938-17.6084,0-9.70996,7.89941-17.60938,17.60938-17.60938,9.70898,0,17.6084,7.89941,17.6084,17.60938,0,9.70898-7.89941,17.6084-17.6084,17.6084Z"/><path d="M1237.41971,210.52592c8.88245,0,16.10889,7.22644,16.10889,16.10892s-7.22644,16.10892-16.10889,16.10892-16.10895-7.22644-16.10895-16.10892,7.22644-16.10892,16.10895-16.10892m0-3c-10.55359,0-19.10895,8.55536-19.10895,19.10892s8.55536,19.10892,19.10895,19.10892,19.10889-8.55536,19.10889-19.10892-8.55536-19.10892-19.10889-19.10892h0Z"/></g><g><path class="k" d="M1132.32897,271.77198c8.74768-4.39252,19.07812-7.6853,30.32593-9.75134-.50122-5.32666-4.99414-9.50934-10.44971-9.50934h-14.52344c-5.79004,0-10.5,4.70996-10.5,10.5v11.60059c1.62976-.97882,3.33569-1.93024,5.14722-2.8399Z"/><path d="M1128.68175,273.73499v-10.72412c0-4.96265,4.03748-9,9-9h14.5238c4.72571,0,8.60413,3.66333,8.96448,8.29828,.98328-.19153,1.97144-.3761,2.96899-.54852-.63062-6.01807-5.75562-10.74976-11.93347-10.74976h-14.5238c-6.59998,0-12,5.39996-12,12v12.53076c.96643-.61438,1.96411-1.21735,3-1.80664Z"/><path class="k" d="M1191.18175,259.4922c6.0437,0,11.98596,.33484,17.76172,.96613v-12.18042c0-5.79004-4.70996-10.5-10.5-10.5h-14.52344c-5.79004,0-10.5,4.70996-10.5,10.5v12.18042c5.77563-.63129,11.71802-.96613,17.76172-.96613Z"/><path d="M1174.91979,260.29084v-12.01288c0-4.96259,4.03748-9,9-9h14.52368c4.96265,0,9,4.03741,9,9v12.01288c1.00684,.10022,2.00366,.2182,3,.33691v-12.34979c0-6.59998-5.3999-12-12-12h-14.52368c-6.59998,0-12,5.40002-12,12v12.34979c.99646-.11871,1.99329-.23669,3-.33691Z"/><g><path class="k" d="M1250.03441,271.77198c1.81165,.90967,3.51746,1.86108,5.14734,2.8399v-11.60059c0-5.79004-4.70996-10.5-10.5-10.5h-14.52344c-5.45569,0-9.94861,4.18268-10.44995,9.50934,11.24805,2.06604,21.57837,5.35883,30.32605,9.75134Z"/><path d="M1221.19347,262.30915c.36011-4.63495,4.23865-8.29828,8.96436-8.29828h14.52368c4.96265,0,9,4.03735,9,9v10.72412c1.03589,.58929,2.03369,1.19226,3,1.80664v-12.53076c0-6.60004-5.3999-12-12-12h-14.52368c-6.17773,0-11.30298,4.73169-11.93347,10.74976,.99756,.17242,1.98572,.35699,2.96912,.54852Z"/></g></g><g><path class="k" d="M1191.18175,262.4922c-44.91553,0-81.32666,18.2832-81.32666,40.83673h162.65308c0-22.55353-36.41113-40.83673-81.32642-40.83673Z"/><path d="M1135.02135,277.13398c14.95093-7.50732,34.89575-11.64178,56.1604-11.64178s41.20947,4.13446,56.16028,11.64178c14.29407,7.17755,22.16614,16.48041,22.16614,26.19495h3c0-22.55353-36.41113-40.83673-81.32642-40.83673s-81.32666,18.2832-81.32666,40.83673h3c0-9.71454,7.87219-19.0174,22.16626-26.19495Z"/></g></g><path d="M1242.54894,5c3.85974,0,7,3.1402,7,7V157.7895c0,3.8598-3.14026,7-7,7h-102.73462c-3.85974,0-7-3.1402-7-7V12c0-3.8598,3.14026-7,7-7h102.73462m0-5h-102.73462c-6.6001,0-12,5.4-12,12V157.7895c0,6.60004,5.3999,12,12,12h102.73462c6.6001,0,12-5.39996,12-12V12c0-6.6-5.3999-12-12-12h0Z"/><g><circle cx="1148.58519" cy="24.89477" r="7.5"/><rect x="1168.02063" y="21.55803" width="73.36714" height="6.67347" rx="3.33673" ry="3.33673"/><rect x="1168.02063" y="51.55803" width="73.36714" height="6.67347" rx="3.33673" ry="3.33673"/><rect x="1168.02063" y="81.55803" width="73.36714" height="6.67347" rx="3.33673" ry="3.33673"/><rect x="1168.02063" y="111.55803" width="73.36714" height="6.67347" rx="3.33673" ry="3.33673"/><rect x="1168.02063" y="141.55803" width="73.36714" height="6.67347" rx="3.33673" ry="3.33673"/><path d="M1149.12471,60.98972l3.36539,1.76929c.85058,.44718,1.8447-.2751,1.68226-1.22223l-.64273-3.74742c-.06451-.37611,.06019-.75988,.33344-1.02624l2.72266-2.65394c.68813-.67076,.30841-1.83942-.64256-1.97761l-3.76263-.54674c-.37763-.05487-.70409-.29205-.87297-.63425l-1.6827-3.40952c-.42529-.86173-1.65409-.86173-2.07938,0l-1.6827,3.40952c-.16888,.34219-.49533,.57938-.87297,.63425l-3.76263,.54674c-.95098,.13819-1.3307,1.30685-.64256,1.97761l2.72266,2.65394c.27326,.26636,.39795,.65013,.33344,1.02624l-.64273,3.74742c-.16245,.94713,.83168,1.66941,1.68226,1.22223l3.36539-1.76929c.33777-.17757,.74128-.17757,1.07905,0Z"/><path d="M1152.43023,77.39476h-7.69007c-.30017,0-.57755,.16014-.72763,.4201l-3.84504,6.6598c-.15009,.25996-.15009,.58024,0,.8402l3.84504,6.6598c.15009,.25996,.42746,.4201,.72763,.4201h7.69007c.30017,0,.57755-.16014,.72763-.4201l3.84504-6.6598c.15009-.25996,.15009-.58024,0-.8402l-3.84504-6.6598c-.15009-.25996-.42746-.4201-.72763-.4201Z"/><path d="M1147.85755,107.62294l-7.74786,13.41969c-.32339,.56013,.08085,1.2603,.72763,1.2603h15.49572c.64679,0,1.05103-.70017,.72763-1.2603l-7.74786-13.41969c-.32339-.56013-1.13188-.56013-1.45527,0Z"/><rect x="1141.08519" y="137.39477" width="15" height="15" rx=".8402" ry=".8402"/></g><g><g><g><path class="c" d="M128.46085,355.20528v.00012l-6.99988-12.12396v-52.39056h-11v17.15308h4.53046c.81146,0,1.46936,.6579,1.46936,1.46936v.00006c0,.81146-.6579,1.46936-1.46936,1.46936h-4.53046v5.0816h4.53046c.81146,0,1.46936,.6579,1.46936,1.46942s-.6579,1.46936-1.46936,1.46936h-4.53046v5.08167h4.53046c.81146,0,1.46936,.65784,1.46936,1.46936s-.6579,1.46942-1.46936,1.46942h-4.53046v16.2569l-7.00012,12.12482v-.00055l-13.64343,23.63165c-.47754,.82617-.26367,1.54395,0,2,.26318,.45605,.77734,1,1.73193,1h48.82324c.95459,0,1.46875-.54395,1.73193-1s.47705-1.17285,0-2l-13.64368-23.6311Z"/><path class="m" d="M115.96103,213.26338c-26.46722,0-47.99988,21.53259-48,47.99982h7.99982c0-22.05609,17.94391-40,40-40s40,17.94391,40,40h8.00018c-.00012-26.46722-21.53278-47.99982-48-47.99982Z"/><path class="m" d="M176.96103,268.26338H54.96103c-3.85986,0-7,3.14014-7,7v122c0,3.85938,3.14014,7,7,7h122c3.85938,0,7-3.14062,7-7v-122c0-3.85986-3.14062-7-7-7Zm-36.58862,120.57257h-48.82312c-6.92816,0-11.2583-7.5-7.79419-13.5l19.70575-34.13141v-50.51367c-1.93298,0-3.5-1.56702-3.5-3.5s1.56702-3.5,3.5-3.5h25c1.93298,0,3.5,1.56696,3.5,3.5s-1.56702,3.5-3.5,3.5v50.51367l19.70575,34.13141c3.46411,6-.86603,13.5-7.79419,13.5Z"/></g><path class="l" d="M115.96088,350.13694c-3.30591,0-5.9859,6.80402-5.9859,15.19702s2.67999,15.19702,5.9859,15.19702,5.98584-6.80389,5.98584-15.19702-2.67993-15.19702-5.98584-15.19702Zm.00018,28.89404c-1.8291,0-4.48584-5.33594-4.48584-13.69727,0-8.36035,2.65674-13.69629,4.48584-13.69629s4.48584,5.33594,4.48584,13.69629c0,8.36133-2.65674,13.69727-4.48584,13.69727Z"/><path class="o" d="M129.12186,357.73548c-1.65295-2.863-8.8854-1.78193-16.15396,2.41457s-11.82101,9.91945-10.16806,12.78245c1.65295,2.863,8.88527,1.78194,16.15393-2.41462s11.82104-9.9194,10.16809-12.7824Zm-25.02288,14.44718c-.91455-1.58405,2.37814-6.55282,9.61926-10.73348,7.24028-4.18018,13.1897-4.54734,14.10425-2.96329s-2.37814,6.55282-9.61841,10.733c-7.24112,4.18066-13.19055,4.54783-14.1051,2.96378Z"/><path class="n" d="M102.79985,357.73544c-1.65295,2.863,2.8995,8.58595,10.16805,12.78246,7.26866,4.19657,14.501,5.27757,16.15396,2.41457,1.65295-2.863-2.89942-8.58584-10.16808-12.7824-7.26855-4.1965-14.50097-5.27763-16.15393-2.41462Zm25.02306,14.44687c-.91455,1.58405-6.86398,1.21688-14.1051-2.96378-7.24028-4.18018-10.53296-9.14895-9.61841-10.733s6.86398-1.21688,14.10425,2.9633c7.24112,4.18067,10.53381,9.14944,9.61926,10.73349Z"/><g id="b"><path d="M176.96085,261.26324H54.96085c-7.73199,0-14,6.26801-14,14v122c0,7.73199,6.26801,14,14,14h122c7.73199,0,14-6.26801,14-14v-122c0-7.73199-6.26801-14-14-14Zm7.00018,136.00018c0,3.85938-3.14062,7-7,7H54.96104c-3.85986,0-7-3.14062-7-7v-122c0-3.85986,3.14014-7,7-7h122c3.85938,0,7,3.14014,7,7v122Z"/><path d="M68.35764,267.32794c-.25195-1.9881-.39661-4.00916-.39661-6.06451,0-26.46729,21.53271-48,48-48s48,21.53271,48,48c0,2.05536-.14465,4.07642-.39661,6.06451h7.0564c.21863-1.99243,.34003-4.01404,.34003-6.0647,0-30.37567-24.62433-55-55-55s-55,24.62433-55,55c0,2.05066,.1214,4.07227,.34003,6.0647h7.05676Z"/><path d="M83.52921,267.32794c-.36713-1.96735-.56818-3.99237-.56818-6.06451,0-18.19629,14.80371-33,33-33s33,14.80371,33,33c0,2.07214-.20105,4.09717-.56818,6.06451h7.10864c.30219-1.97815,.45935-4.00342,.45935-6.0647,0-22.05609-17.94391-40-40-40s-40,17.94391-40,40c0,2.06128,.15717,4.08655,.45935,6.0647h7.10901Z"/></g><g><polygon points="128.46085 355.20543 128.46085 288.61943 121.46098 288.61943 121.46098 343.08147 128.46085 355.20543"/><polygon points="110.46098 343.08049 110.46098 288.61943 103.46085 288.61943 103.46085 355.20531 110.46098 343.08049"/></g><path d="M148.1666,375.33599l-24.4115-42.28204c-.61749-1.06952-1.40527-1.93958-2.29413-2.62781v12.65527l20.64355,35.755c.47705,.82715,.26318,1.54395,0,2s-.77734,1-1.73193,1h-48.82324c-.95459,0-1.46875-.54395-1.73193-1-.26367-.45605-.47754-1.17383,0-2l20.64355-35.75647v-12.65399c-.88892,.68823-1.67682,1.55835-2.29437,2.62799l-24.4115,42.28204c-3.46411,6,.86603,13.5,7.79419,13.5h48.82312c6.92816,0,11.2583-7.5,7.79419-13.5Z"/><rect x="107.46092" y="323.88478" width="8.99986" height="2.93878" rx="1.46939" ry="1.46939"/><rect x="107.46092" y="315.86438" width="8.99986" height="2.93878" rx="1.46939" ry="1.46939"/><rect x="107.46092" y="307.84397" width="8.99986" height="2.93878" rx="1.46939" ry="1.46939"/><rect x="99.96085" y="283.69086" width="32" height="7" rx="3.5" ry="3.5"/><g><rect class="n" x="-2.29374" y="298.61303" width="87.7087" height="14.32653" transform="translate(-75.33503 591.36662) rotate(-149.99999)"/><g><path class="c" d="M7.57287,283.16956l-.02051-.01172-1.54004-.04492,.22461-.79785,1.93115,.06152,.7793,.4502-3.89795,6.75195-.88281-.50977,3.40625-5.89941Z"/><path class="c" d="M13.99181,290.1432c-1.32568,2.2959-2.90869,3.07129-4.4043,2.20801-1.31885-.76172-1.49902-2.51367-.23047-4.75879,1.30713-2.26367,3.00342-2.94629,4.37451-2.15527,1.42285,.82129,1.50146,2.55664,.26025,4.70605Zm-3.72656-2.0127c-1.01318,1.75586-1.04883,3.06445-.21826,3.54395,.93506,.54004,2.01123-.29199,3.00684-2.0166,.95947-1.66211,1.16357-2.99902,.21826-3.54492-.80029-.46094-1.94531,.17969-3.00684,2.01758Z"/><path class="c" d="M18.23498,289.32484l-.02051-.01172-1.54004-.04395,.22559-.79883,1.93018,.0625,.7793,.4502-3.89795,6.75098-.88281-.50977,3.40625-5.89941Z"/><path class="c" d="M24.65392,296.29945c-1.32568,2.2959-2.90869,3.07031-4.4043,2.20703-1.31885-.76172-1.49902-2.5127-.23047-4.75879,1.30713-2.26367,3.00342-2.94629,4.37451-2.1543,1.42285,.82129,1.50146,2.55566,.26025,4.70605Zm-3.72656-2.0127c-1.01318,1.75488-1.04883,3.06445-.21826,3.54395,.93506,.54004,2.01123-.29297,3.00684-2.0166,.95947-1.66211,1.16357-2.99902,.21826-3.54492-.80029-.46191-1.94531,.17871-3.00684,2.01758Z"/><path class="c" d="M28.89709,295.48109l-.02051-.0127-1.54004-.04297,.22559-.79883,1.93018,.0625,.7793,.44922-3.89795,6.75195-.88281-.50977,3.40625-5.89941Z"/><path class="c" d="M35.31603,302.45472c-1.3252,2.29688-2.9082,3.07129-4.40381,2.20801-1.31885-.76172-1.49854-2.51367-.23047-4.75879,1.30713-2.26367,3.00342-2.94629,4.37451-2.15527,1.42285,.82129,1.50098,2.55664,.25977,4.70605Zm-3.72559-2.01172c-1.01367,1.75488-1.04932,3.06348-.21875,3.54297,.93506,.54004,2.01172-.29199,3.00684-2.0166,.95947-1.66211,1.16357-2.99902,.21826-3.54395-.80029-.46191-1.94482,.17871-3.00635,2.01758Z"/><path class="c" d="M40.64709,305.53284c-1.3252,2.2959-2.9082,3.07129-4.40381,2.20703-1.31885-.76074-1.49854-2.5127-.23047-4.75781,1.30713-2.26367,3.00342-2.94727,4.37451-2.15527,1.42285,.82129,1.50098,2.55664,.25977,4.70605Zm-3.72559-2.0127c-1.01367,1.75586-1.04932,3.06445-.21875,3.54395,.93506,.54004,2.01172-.29297,3.00684-2.0166,.95947-1.66211,1.16357-2.99902,.21826-3.54395-.80029-.46289-1.94482,.17871-3.00635,2.0166Z"/><path class="c" d="M44.89074,304.71449l-.02051-.01172-1.53955-.04395,.22461-.79785,1.93066,.06152,.7793,.4502-3.89795,6.75098-.88281-.50977,3.40625-5.89941Z"/><path class="c" d="M50.22179,307.79261l-.02051-.01172-1.53955-.04395,.22559-.79785,1.92969,.06152,.7793,.4502-3.89795,6.75098-.88281-.50977,3.40625-5.89941Z"/><path class="c" d="M56.64025,314.76722c-1.3252,2.29492-2.9082,3.07031-4.40381,2.20703-1.31885-.76172-1.49854-2.51367-.23047-4.75879,1.30713-2.26367,3.00342-2.94629,4.37451-2.15527,1.42285,.82227,1.50098,2.55664,.25977,4.70703Zm-3.72559-2.01367c-1.01367,1.75586-1.04932,3.06445-.21875,3.54492,.93506,.53906,2.01172-.29297,3.00684-2.01758,.95947-1.66211,1.16357-2.99805,.21826-3.54395-.7998-.46191-1.94482,.17871-3.00635,2.0166Z"/><path class="c" d="M61.9713,317.84437c-1.3252,2.2959-2.9082,3.07129-4.40381,2.20801-1.31885-.76172-1.49854-2.51367-.23047-4.75879,1.30713-2.26367,3.00342-2.94629,4.37451-2.15527,1.42285,.82129,1.50098,2.55664,.25977,4.70605Zm-3.72559-2.0127c-1.01367,1.75586-1.04932,3.06445-.21826,3.54395,.93457,.54004,2.01123-.29199,3.00635-2.0166,.95947-1.66211,1.16357-2.99902,.21826-3.54492-.7998-.46094-1.94482,.17969-3.00635,2.01758Z"/><path class="c" d="M66.21496,317.02601l-.02051-.01172-1.53955-.04395,.22461-.79883,1.93115,.0625,.7793,.4502-3.89795,6.75098-.8833-.50977,3.40625-5.89941Z"/><path class="c" d="M71.5465,320.10413l-.02051-.01172-1.54004-.04395,.22559-.79883,1.93018,.0625,.77979,.4502-3.89795,6.75146-.8833-.51025,3.40625-5.89941Z"/><path class="c" d="M77.96544,327.07825c-1.32568,2.29688-2.90869,3.07031-4.4043,2.20703-1.31885-.76172-1.49902-2.51172-.23047-4.7583,1.30713-2.26367,3.00342-2.94629,4.37451-2.1543,1.42285,.82129,1.50146,2.55566,.26025,4.70557Zm-3.72656-2.01221c-1.01318,1.75439-1.04883,3.06494-.21777,3.54346,.93457,.54102,2.01074-.29297,3.00635-2.01562,.95947-1.6626,1.16357-2.99951,.21826-3.54541-.7998-.46191-1.94531,.17871-3.00684,2.01758Z"/></g></g><g><rect class="o" x="147.12848" y="298.60034" width="87.7087" height="14.32653" transform="translate(509.2606 475.07128) rotate(150.00001)"/><g><path class="c" d="M154.39806,323.94447l-.02051,.01172-.80859,1.31152-.57812-.59424,1.01953-1.64111,.7793-.4502,3.89746,6.75195-.88281,.50977-3.40625-5.89941Z"/><path class="c" d="M163.64709,321.8722c1.32617,2.2959,1.20508,4.05469-.29004,4.91797-1.31934,.76172-2.92578,.04199-4.23633-2.17969-1.30762-2.26367-1.0498-4.07422,.32129-4.86572,1.42188-.82178,2.96387-.02197,4.20508,2.12744Zm-3.60547,2.2207c1.01367,1.75586,2.12891,2.44043,2.95898,1.96094,.93555-.53955,.75293-1.8877-.24219-3.61182-.95996-1.66211-2.01562-2.50732-2.96094-1.96143-.80078,.46191-.81738,1.77441,.24414,3.6123Z"/><path class="c" d="M165.06017,317.78822l-.02051,.01221-.80762,1.31152-.5791-.59424,1.01953-1.64111,.7793-.44971,3.89746,6.75098-.88281,.50977-3.40625-5.89941Z"/><path class="c" d="M170.39123,314.71058l-.02051,.01221-.80762,1.31152-.5791-.59473,1.01855-1.64062,.7793-.4502,3.89844,6.75146-.88281,.50977-3.40625-5.89941Z"/><path class="c" d="M179.64025,312.6388c1.3252,2.2959,1.20605,4.0542-.29004,4.91797-1.31836,.76123-2.92578,.04102-4.23633-2.18018-1.30664-2.26367-1.05078-4.07373,.32031-4.86572,1.42383-.82129,2.96484-.02197,4.20605,2.12793Zm-3.60547,2.2207c1.0127,1.75537,2.12891,2.44043,2.95996,1.96094,.93457-.54004,.75195-1.8877-.24414-3.6123-.95898-1.66211-2.01465-2.50684-2.95996-1.96094-.7998,.46191-.81738,1.77393,.24414,3.6123Z"/><path class="c" d="M184.97228,309.56068c1.3252,2.2959,1.20508,4.0542-.29004,4.91797-1.31934,.76123-2.92676,.04102-4.23633-2.18018-1.30762-2.26367-1.05078-4.07373,.32031-4.86572,1.42285-.82129,2.96484-.02197,4.20605,2.12793Zm-3.60645,2.2207c1.01367,1.75537,2.12891,2.44043,2.95996,1.96094,.93457-.54004,.75195-1.8877-.24316-3.6123-.95898-1.66211-2.01562-2.50684-2.96094-1.96094-.7998,.46191-.81738,1.77393,.24414,3.6123Z"/><path class="c" d="M186.38537,305.47669l-.02148,.01172-.80762,1.31152-.57812-.59424,1.01855-1.64111,.7793-.44971,3.89844,6.75146-.88281,.50977-3.40625-5.89941Z"/><path class="c" d="M191.71544,302.39857l-.01953,.01221-.80859,1.31152-.57812-.59424,1.01855-1.64111,.7793-.44971,3.89746,6.75098-.88281,.50977-3.40625-5.89941Z"/><path class="c" d="M197.04748,299.32093l-.02148,.01221-.80762,1.31152-.57812-.59473,1.01855-1.64062,.7793-.4502,3.89844,6.75146-.88281,.50977-3.40625-5.89941Z"/><path class="c" d="M206.2965,297.24915c1.3252,2.2959,1.20508,4.0542-.29004,4.91797-1.31934,.76123-2.92676,.04102-4.23633-2.18018-1.30762-2.26367-1.05078-4.07373,.32031-4.86572,1.42285-.82129,2.96484-.02197,4.20605,2.12793Zm-3.60645,2.2207c1.01367,1.75537,2.12891,2.44043,2.95996,1.96094,.93457-.54004,.75195-1.8877-.24316-3.6123-.95898-1.66211-2.01562-2.50684-2.96094-1.96094-.79883,.46191-.81738,1.77393,.24414,3.6123Z"/><path class="c" d="M211.62755,294.17103c1.3252,2.2959,1.20508,4.05469-.29102,4.91797-1.31836,.76172-2.92578,.0415-4.23633-2.17969-1.30664-2.26367-1.0498-4.07422,.32129-4.86572,1.42285-.82178,2.96484-.02197,4.20605,2.12744Zm-3.60645,2.2207c1.01367,1.75586,2.12988,2.44092,2.95996,1.96094,.93555-.53955,.75195-1.8877-.24316-3.61182-.95996-1.66211-2.01465-2.50732-2.95996-1.96143-.80078,.46191-.81836,1.77441,.24316,3.6123Z"/><path class="c" d="M213.03966,290.08704l-.01953,.01221-.80859,1.31152-.57812-.59424,1.01953-1.64111,.7793-.44971,3.89746,6.75098-.88379,.50977-3.40625-5.89941Z"/><path class="c" d="M218.37169,287.00892l-.02051,.01221-.80762,1.31152-.5791-.59424,1.01855-1.64111,.78027-.44971,3.89746,6.75098-.88281,.50977-3.40625-5.89941Z"/><path class="c" d="M227.62072,284.93763c1.3252,2.2959,1.20605,4.05371-.29004,4.91748-1.31836,.76123-2.92578,.0415-4.23633-2.18018-1.30664-2.26367-1.05078-4.07373,.32031-4.86523,1.42383-.82129,2.96484-.02246,4.20605,2.12793Zm-3.60547,2.2207c1.0127,1.75488,2.12891,2.44043,2.95996,1.96094,.93457-.54004,.75195-1.88818-.24414-3.6123-.95898-1.66211-2.01465-2.50684-2.95996-1.96143-.7998,.46191-.81738,1.77393,.24414,3.61279Z"/></g></g><g><rect class="l" x="90.19589" y="409.72245" width="51.52969" height="14.32653" transform="translate(-300.92517 532.84574) rotate(-89.9999)"/><g><path class="c" d="M118.56505,394.19642v-.02441l-.73193-1.35547,.80371-.2041,.91162,1.70312v.90039h-7.7959v-1.01953h6.8125Z"/><path class="c" d="M115.73449,403.24232c-2.65088,0-4.11377-.9834-4.11377-2.71094,0-1.52246,1.42725-2.55469,4.00586-2.57812,2.61426,0,4.05371,1.12695,4.05371,2.70996,0,1.64355-1.46338,2.5791-3.9458,2.5791Zm-.12012-4.2334c-2.02686,0-3.17822,.62305-3.17822,1.58301,0,1.0791,1.25928,1.59473,3.25,1.59473,1.91895,0,3.17871-.49121,3.17871-1.58301,0-.92383-1.12744-1.59473-3.25049-1.59473Z"/><path class="c" d="M118.56505,406.50794v-.02441l-.73193-1.35547,.80371-.2041,.91162,1.70312v.90039h-7.7959v-1.01953h6.8125Z"/><path class="c" d="M115.73449,415.55384c-2.65088,0-4.11377-.9834-4.11377-2.71094,0-1.52246,1.42725-2.55469,4.00586-2.57812,2.61426,0,4.05371,1.12695,4.05371,2.70996,0,1.64355-1.46338,2.5791-3.9458,2.5791Zm-.12012-4.2334c-2.02686,0-3.17822,.62305-3.17822,1.58301,0,1.0791,1.25928,1.59473,3.25,1.59473,1.91895,0,3.17871-.49121,3.17871-1.58301,0-.92383-1.12744-1.59473-3.25049-1.59473Z"/><path class="c" d="M118.56505,418.81947v-.02441l-.73193-1.35547,.80371-.2041,.91162,1.70312v.90039h-7.7959v-1.01953h6.8125Z"/><path class="c" d="M115.73449,427.86536c-2.65088,0-4.11377-.9834-4.11377-2.70996,0-1.52344,1.42725-2.55469,4.00586-2.5791,2.61426,0,4.05371,1.12793,4.05371,2.71094,0,1.64258-1.46338,2.57812-3.9458,2.57812Zm-.12012-4.2334c-2.02686,0-3.17822,.62402-3.17822,1.58301,0,1.08008,1.25928,1.5957,3.25,1.5957,1.91895,0,3.17871-.49219,3.17871-1.58301,0-.92383-1.12744-1.5957-3.25049-1.5957Z"/><path class="c" d="M118.56505,431.13099v-.02344l-.73193-1.35547,.80371-.2041,.91162,1.70312v.89941h-7.7959v-1.01953h6.8125Z"/><path class="c" d="M115.73449,440.17689c-2.65088,0-4.11377-.9834-4.11377-2.70996,0-1.52344,1.42725-2.55469,4.00586-2.5791,2.61426,0,4.05371,1.12793,4.05371,2.71094,0,1.64258-1.46338,2.57812-3.9458,2.57812Zm-.12012-4.2334c-2.02686,0-3.17822,.62402-3.17822,1.58301,0,1.08008,1.25928,1.5957,3.25,1.5957,1.91895,0,3.17871-.49219,3.17871-1.58301,0-.92383-1.12744-1.5957-3.25049-1.5957Z"/></g></g></g><g><path class="n" d="M309.21379,282.55043c-.60749-11.4251-1.33708-25.15842-1.21497-35.36741h-.3648c-2.79551,9.6015-6.1985,19.81048-10.33033,31.11347l-14.46292,39.74231h-8.02173l-13.24718-39.01271c-3.88914-11.54645-7.17079-22.12023-9.48015-31.84307h-.24269c-.24269,10.20898-.85094,23.94231-1.57977,36.21835l-2.18802,35.12357h-10.08688l5.7116-81.91494h13.49063l13.97678,39.62058c3.40299,10.08764,6.19774,19.08089,8.26442,27.58875h.3648c2.06591-8.26442,4.98277-17.25843,8.62845-27.58875l14.58426-39.62058h13.49063l5.10487,81.91494h-10.33109l-2.06591-35.97451Z"/><path class="l" d="M337.89159,237.58228c5.10487-.85094,11.78875-1.58053,20.29662-1.58053,10.45167,0,18.1086,2.43071,22.97002,6.80599,4.49662,3.88914,7.17079,9.84419,7.17079,17.13708,0,7.41348-2.18802,13.24718-6.31985,17.5015-5.59102,5.95505-14.70561,8.99325-25.0367,8.99325-3.15954,0-6.07639-.12134-8.5071-.72959v32.81497h-10.57378v-80.94266Zm10.57378,39.49923c2.30937,.60749,5.22622,.85018,8.75056,.85018,12.76104,0,20.53931-6.19812,20.53931-17.5015,0-10.81647-7.65693-16.04193-19.32434-16.04193-4.61797,0-8.14307,.36403-9.96553,.85018v31.84307Z"/><path class="o" d="M459.79038,315.85078c-3.88914,1.94457-11.66741,3.88914-21.6337,3.88914-23.09137,0-40.47114-14.58426-40.47114-41.44342,0-25.64457,17.37977-43.02357,42.7805-43.02357,10.20898,0,16.65018,2.18726,19.44568,3.64568l-2.55206,8.62921c-4.01124-1.94457-9.72284-3.40299-16.52883-3.40299-19.20299,0-31.96403,12.2749-31.96403,33.78687,0,20.05393,11.54607,32.93632,31.47789,32.93632,6.44119,0,13.00373-1.33632,17.25766-3.40299l2.18802,8.38576Z"/><path d="M240.18162,330.38925h10.57378v73.04266h35.00223v8.8719h-45.57601v-81.91456Z"/><path d="M329.75005,412.30381l-.85094-7.41348h-.36403c-3.28165,4.61797-9.6015,8.75056-17.98726,8.75056-11.91086,0-17.98726-8.38576-17.98726-16.89363,0-14.21946,12.63969-21.99774,35.36626-21.87639v-1.21574c0-4.86142-1.33632-13.61198-13.36853-13.61198-5.46891,0-11.18127,1.70188-15.31309,4.37604l-2.43147-7.04944c4.86142-3.16031,11.91086-5.22622,19.32434-5.22622,17.98726,0,22.36254,12.27566,22.36254,24.06441v21.99774c0,5.10487,.24345,10.08764,.97228,14.09812h-9.72284Zm-1.57977-30.01946c-11.66741-.24269-24.91459,1.82322-24.91459,13.24794,0,6.92733,4.61797,10.20822,10.08688,10.20822,7.65693,0,12.51835-4.86142,14.22023-9.84419,.36403-1.09363,.60749-2.3086,.60749-3.40299v-10.20898Z"/><path d="M355.26984,412.30381c.24345-4.01048,.48614-9.96553,.48614-15.19175v-71.09885h10.57378v36.9468h.24269c3.76779-6.56254,10.57378-10.81647,20.05393-10.81647,14.58426,0,24.91459,12.15355,24.79325,30.01946,0,21.02545-13.24718,31.47789-26.37378,31.47789-8.5071,0-15.31309-3.28165-19.68837-11.05992h-.3648l-.48614,9.72284h-9.2367Zm11.05992-23.57751c0,1.33632,.24269,2.6734,.48614,3.88914,2.06591,7.41348,8.26442,12.51759,16.04269,12.51759,11.18127,0,17.86591-9.11535,17.86591-22.60522,0-11.78952-6.07716-21.87639-17.50111-21.87639-7.29213,0-14.09812,4.98277-16.28614,13.12584-.24269,1.21497-.60749,2.6734-.60749,4.37528v10.57378Z"/></g></g><g><path d="M924.43322,331.05579c5.12402-.85449,11.83398-1.58594,20.37305-1.58594,10.49219,0,18.17773,2.43945,23.05664,6.83105,4.51367,3.9043,7.19727,9.88184,7.19727,17.20117,0,7.44238-2.19531,13.29785-6.34375,17.56738-5.61133,5.97754-14.76074,9.02734-25.12988,9.02734-3.17188,0-6.10059-.12207-8.54004-.73145v32.93848h-10.61328v-81.24805Zm10.61328,39.64746c2.31836,.61035,5.24609,.85449,8.7832,.85449,12.81055,0,20.61719-6.22168,20.61719-17.56738,0-10.85742-7.68555-16.10352-19.39648-16.10352-4.63574,0-8.17383,.36621-10.00391,.85449v31.96191Z"/><path d="M987.02013,371.67982c0-6.9541-.12207-12.93164-.48828-18.4209h9.39355l.36621,11.58887h.4873c2.68457-7.92969,9.15039-12.93164,16.34766-12.93164,1.2207,0,2.07422,.12207,3.0498,.36621v10.12598c-1.09766-.24414-2.19629-.36621-3.65918-.36621-7.56445,0-12.93164,5.7334-14.39648,13.78516-.24316,1.46387-.4873,3.17188-.4873,5.00195v31.47461h-10.61328v-40.62402Z"/><path d="M1079.12755,382.2931c0,21.83691-15.12695,31.35254-29.40039,31.35254-15.98145,0-28.30273-11.71094-28.30273-30.37598,0-19.76367,12.93066-31.35352,29.27832-31.35352,16.95703,0,28.4248,12.32227,28.4248,30.37695Zm-46.8457,.61035c0,12.93164,7.44238,22.69043,17.93262,22.69043,10.24805,0,17.93359-9.6377,17.93359-22.93457,0-10.00391-5.00195-22.69141-17.68945-22.69141s-18.17676,11.71191-18.17676,22.93555Z"/><path d="M1078.27697,429.38294c4.87891-.36621,9.14844-1.70801,11.71094-4.51367,2.92773-3.41602,4.02539-8.05176,4.02539-22.20312v-49.40723h10.73633v53.55566c0,11.4668-1.83008,18.9082-7.07617,24.27637-4.75781,4.75781-12.56543,6.70996-18.29883,6.70996l-1.09766-8.41797Zm27.69238-92.71582c.12207,3.53809-2.44043,6.58789-6.70996,6.58789-4.02539,0-6.58789-3.0498-6.58789-6.58789,0-3.78125,2.80664-6.70996,6.83203-6.70996,3.9043,0,6.46582,2.92871,6.46582,6.70996Z"/><path d="M1128.29455,384.73353c.24414,14.5166,9.51562,20.49512,20.25195,20.49512,7.68555,0,12.32031-1.34277,16.34668-3.05078l1.83008,7.68652c-3.78223,1.70703-10.24707,3.65918-19.6416,3.65918-18.17676,0-29.03418-11.95508-29.03418-29.7666s10.49121-31.84082,27.69238-31.84082c19.27539,0,24.39844,16.95801,24.39844,27.81543,0,2.19531-.24316,3.90332-.36523,5.00195h-41.47852Zm31.47461-7.68652c.12207-6.83105-2.80566-17.44434-14.88281-17.44434-10.85742,0-15.61523,10.00293-16.46875,17.44434h31.35156Z"/><path d="M1225.52697,410.10755c-2.80664,1.46387-9.02832,3.41602-16.95801,3.41602-17.81152,0-29.40039-12.07715-29.40039-30.13184,0-18.17773,12.44336-31.35352,31.71777-31.35352,6.34375,0,11.95605,1.58594,14.88379,3.0498l-2.44043,8.2959c-2.56055-1.46387-6.58691-2.80566-12.44336-2.80566-13.54102,0-20.86035,10.00293-20.86035,22.3252,0,13.66309,8.78418,22.08105,20.49512,22.08105,6.09961,0,10.125-1.58594,13.17578-2.92773l1.83008,8.05078Z"/><path d="M1252.609,336.30091v16.95801h15.37109v8.17285h-15.37109v31.84082c0,7.31934,2.07422,11.46777,8.05273,11.46777,2.80469,0,4.87891-.36621,6.2207-.73242l.48828,8.05176c-2.07422,.85449-5.36719,1.46387-9.51562,1.46387-5.00195,0-9.02734-1.58594-11.58984-4.51367-3.04883-3.17188-4.14746-8.41797-4.14746-15.37109v-32.20703h-9.14941v-8.17285h9.14941v-14.15137l10.49121-2.80664Z"/></g><g><line class="g" x1="562.66039" y1="374.53327" x2="794.91472" y2="374.53327"/><polygon points="513.2365 374.53327 582.88103 402.99128 566.35515 374.53327 582.88103 346.08213 513.2365 374.53327"/><polygon points="844.33855 374.53327 774.69402 402.99128 791.2199 374.53327 774.69402 346.08213 844.33855 374.53327"/></g></svg>