<svg xmlns="http://www.w3.org/2000/svg" width="1272.50817" height="442.65056" viewBox="0 0 1272.50817 442.65056"><defs><style>.a,.g{fill:#b3b3b3;}.b{fill:#1b75bb;}.c{fill:#f6921e;}.d{fill:#009345;}.e{fill:#a71d33;}.f,.h,.i,.j,.m{fill:none;}.f,.g,.h,.i,.j{stroke:#000;}.f,.g,.h,.i,.j,.m{stroke-linecap:round;}.f,.i,.m{stroke-miterlimit:10;}.f,.g,.h{stroke-width:8px;}.g,.h,.j{stroke-linejoin:round;}.i,.j{stroke-width:3px;}.j{stroke-dasharray:4;}.k{fill:#fff;}.l{fill:#231f20;}.m{stroke:#231f20;stroke-width:7px;}</style></defs><rect class="a" x="945.68167" y="2.76518" width="133" height="133" rx="9.5"/><path d="M1072.92759,8.86326a7.00789,7.00789,0,0,1,7,7v114a7.00789,7.00789,0,0,1-7,7h-114a7.00789,7.00789,0,0,1-7-7v-114a7.00789,7.00789,0,0,1,7-7h114m0-5h-114a12.03529,12.03529,0,0,0-12,12v114a12.03529,12.03529,0,0,0,12,12h114a12.03529,12.03529,0,0,0,12-12v-114a12.0353,12.0353,0,0,0-12-12Z" transform="translate(-3.74592 -3.59808)"/><rect class="b" x="240.68175" y="152.76527" width="58" height="58" rx="9.5"/><path d="M292.92758,158.86327a7.00791,7.00791,0,0,1,7,7v39a7.0079,7.0079,0,0,1-7,7h-39a7.00791,7.00791,0,0,1-7-7v-39a7.00792,7.00792,0,0,1,7-7h39m0-5h-39a12.03525,12.03525,0,0,0-12,12v39a12.03526,12.03526,0,0,0,12,12h39a12.03527,12.03527,0,0,0,12-12v-39a12.03527,12.03527,0,0,0-12-12Z" transform="translate(-3.74592 -3.59808)"/><rect class="c" x="315.68175" y="152.76527" width="58" height="58" rx="9.5"/><path d="M367.92758,158.86327a7.00791,7.00791,0,0,1,7,7v39a7.0079,7.0079,0,0,1-7,7h-39a7.00789,7.00789,0,0,1-7-7v-39a7.00791,7.00791,0,0,1,7-7h39m0-5h-39a12.03528,12.03528,0,0,0-12,12v39a12.03529,12.03529,0,0,0,12,12h39a12.03527,12.03527,0,0,0,12-12v-39a12.03527,12.03527,0,0,0-12-12Z" transform="translate(-3.74592 -3.59808)"/><rect class="d" x="390.68175" y="152.76527" width="58" height="58" rx="9.5"/><path d="M442.92758,158.86327a7.00791,7.00791,0,0,1,7,7v39a7.0079,7.0079,0,0,1-7,7h-39a7.00789,7.00789,0,0,1-7-7v-39a7.00791,7.00791,0,0,1,7-7h39m0-5h-39a12.03528,12.03528,0,0,0-12,12v39a12.03529,12.03529,0,0,0,12,12h39a12.03527,12.03527,0,0,0,12-12v-39a12.03527,12.03527,0,0,0-12-12Z" transform="translate(-3.74592 -3.59808)"/><rect class="e" x="240.68175" y="77.76527" width="58" height="58" rx="9.5"/><path d="M292.92758,83.86327a7.00791,7.00791,0,0,1,7,7v39a7.00791,7.00791,0,0,1-7,7h-39a7.00792,7.00792,0,0,1-7-7v-39a7.00792,7.00792,0,0,1,7-7h39m0-5h-39a12.03526,12.03526,0,0,0-12,12v39a12.03526,12.03526,0,0,0,12,12h39a12.03527,12.03527,0,0,0,12-12v-39a12.03527,12.03527,0,0,0-12-12Z" transform="translate(-3.74592 -3.59808)"/><rect class="b" x="315.68175" y="77.76527" width="58" height="58" rx="9.5"/><path d="M367.92758,83.86327a7.00791,7.00791,0,0,1,7,7v39a7.00791,7.00791,0,0,1-7,7h-39a7.00791,7.00791,0,0,1-7-7v-39a7.00791,7.00791,0,0,1,7-7h39m0-5h-39a12.03529,12.03529,0,0,0-12,12v39a12.03529,12.03529,0,0,0,12,12h39a12.03527,12.03527,0,0,0,12-12v-39a12.03527,12.03527,0,0,0-12-12Z" transform="translate(-3.74592 -3.59808)"/><path d="M996.42759,18.80065a6.947,6.947,0,0,1,4.9497,2.0357l27.57727,27.57716a7.008,7.008,0,0,1,0,9.89948l-27.57727,27.57719a7.03525,7.03525,0,0,1-9.89941,0L963.90061,58.313a7.008,7.008,0,0,1,0-9.89948l27.57727-27.57721a6.94712,6.94712,0,0,1,4.94971-2.03568m0-5a11.96289,11.96289,0,0,0-8.48523,3.50017L960.36509,44.878a12.03533,12.03533,0,0,0,0,16.97055L987.94236,89.4257a12.0351,12.0351,0,0,0,16.97046,0l27.57727-27.57716a12.03533,12.03533,0,0,0,0-16.97055l-27.57727-27.57718a11.96292,11.96292,0,0,0-8.48523-3.50017Z" transform="translate(-3.74592 -3.59808)"/><path d="M1072.92759,83.86326a7.0079,7.0079,0,0,1,7,7v39a7.00789,7.00789,0,0,1-7,7h-39a7.00789,7.00789,0,0,1-7-7v-39a7.00789,7.00789,0,0,1,7-7h39m0-5h-39a12.03529,12.03529,0,0,0-12,12v39a12.03529,12.03529,0,0,0,12,12h39a12.03529,12.03529,0,0,0,12-12v-39a12.0353,12.0353,0,0,0-12-12Z" transform="translate(-3.74592 -3.59808)"/><rect class="d" x="870.68126" y="152.76527" width="58" height="58" rx="9.5"/><path d="M922.92761,158.86327a7.00793,7.00793,0,0,1,7,7v39a7.00792,7.00792,0,0,1-7,7h-39a7.00792,7.00792,0,0,1-7-7v-39a7.00793,7.00793,0,0,1,7-7h39m0-5h-39a12.03524,12.03524,0,0,0-12,12v39a12.03525,12.03525,0,0,0,12,12h39a12.03529,12.03529,0,0,0,12-12v-39a12.03529,12.03529,0,0,0-12-12Z" transform="translate(-3.74592 -3.59808)"/><rect class="c" x="945.68126" y="152.76527" width="58" height="58" rx="9.5"/><path d="M997.92761,158.86327a7.00793,7.00793,0,0,1,7,7v39a7.00792,7.00792,0,0,1-7,7h-39a7.00792,7.00792,0,0,1-7-7v-39a7.00793,7.00793,0,0,1,7-7h39m0-5h-39a12.03524,12.03524,0,0,0-12,12v39a12.03525,12.03525,0,0,0,12,12h39a12.03529,12.03529,0,0,0,12-12v-39a12.03529,12.03529,0,0,0-12-12Z" transform="translate(-3.74592 -3.59808)"/><rect class="b" x="1020.68126" y="152.76527" width="58" height="58" rx="9.5"/><path d="M1072.92755,158.86327a7.00789,7.00789,0,0,1,7,7v39a7.00788,7.00788,0,0,1-7,7h-39a7.008,7.008,0,0,1-7-7v-39a7.008,7.008,0,0,1,7-7h39m0-5h-39a12.03523,12.03523,0,0,0-11.99994,12v39a12.03523,12.03523,0,0,0,11.99994,12h39a12.03521,12.03521,0,0,0,12-12v-39a12.03521,12.03521,0,0,0-12-12Z" transform="translate(-3.74592 -3.59808)"/><rect class="d" x="240.68175" y="2.76527" width="58" height="58" rx="9.5"/><path d="M292.92758,8.86326a7.00791,7.00791,0,0,1,7,7v39a7.00791,7.00791,0,0,1-7,7h-39a7.00792,7.00792,0,0,1-7-7v-39a7.00792,7.00792,0,0,1,7-7h39m0-5h-39a12.03527,12.03527,0,0,0-12,12v39a12.03527,12.03527,0,0,0,12,12h39a12.03528,12.03528,0,0,0,12-12v-39a12.03528,12.03528,0,0,0-12-12Z" transform="translate(-3.74592 -3.59808)"/><line class="f" x1="517.60782" y1="309.16862" x2="715.00684" y2="309.16862"/><polygon class="g" points="546.479 63.221 617.65 18.907 840.563 63.221 546.479 63.221"/><polyline class="h" points="686.182 309.169 619.664 5.684 616.979 5.684 550.462 309.169"/><line class="i" x1="603.81956" y1="65.72323" x2="637.02563" y2="84.89477"/><line class="i" x1="599.61758" y1="84.89477" x2="637.60646" y2="84.89477"/><line class="i" x1="599.61758" y1="84.89477" x2="642.44513" y2="109.62127"/><line class="i" x1="594.19807" y1="109.62127" x2="642.44513" y2="109.62127"/><line class="i" x1="594.19807" y1="109.62127" x2="649.43495" y2="141.51229"/><line class="i" x1="587.20826" y1="141.51229" x2="649.43495" y2="141.51229"/><line class="i" x1="587.20826" y1="141.51229" x2="658.45007" y2="182.64377"/><line class="i" x1="578.19314" y1="182.64377" x2="658.45007" y2="182.64377"/><line class="i" x1="578.19314" y1="182.64377" x2="670.07732" y2="235.69312"/><line class="i" x1="566.56588" y1="235.69312" x2="670.07732" y2="235.69312"/><line class="i" x1="566.56588" y1="235.69312" x2="685.0736" y2="304.11359"/><line class="j" x1="781.66977" y1="64.56429" x2="781.66977" y2="126.90963"/><rect class="e" x="752.66955" y="125.1554" width="58" height="58" rx="9.5"/><path d="M804.91571,131.25368a7.00793,7.00793,0,0,1,7,7v39a7.00793,7.00793,0,0,1-7,7h-39a7.00793,7.00793,0,0,1-7-7v-39a7.00793,7.00793,0,0,1,7-7h39m0-5h-39a12.03525,12.03525,0,0,0-12,12v39a12.03525,12.03525,0,0,0,12,12h39a12.03529,12.03529,0,0,0,12-12v-39a12.0353,12.0353,0,0,0-12-12Z" transform="translate(-3.74592 -3.59808)"/><path class="a" d="M1148.68931,247.84181a17.60889,17.60889,0,1,1,17.60937-17.6084A17.62875,17.62875,0,0,1,1148.68931,247.84181Z" transform="translate(-3.74592 -3.59808)"/><path d="M1148.68955,214.124a16.10892,16.10892,0,1,1-16.10889,16.10892,16.12718,16.12718,0,0,1,16.10889-16.10892m0-3a19.10892,19.10892,0,1,0,19.109,19.10892,19.10892,19.10892,0,0,0-19.109-19.10892Z" transform="translate(-3.74592 -3.59808)"/><path class="a" d="M1194.92759,233.10938A17.60889,17.60889,0,1,1,1212.537,215.5,17.62917,17.62917,0,0,1,1194.92759,233.10938Z" transform="translate(-3.74592 -3.59808)"/><path d="M1194.92759,199.39112A16.10892,16.10892,0,1,1,1178.8187,215.5a16.12717,16.12717,0,0,1,16.10889-16.10892m0-3A19.10892,19.10892,0,1,0,1214.03647,215.5a19.10888,19.10888,0,0,0-19.10888-19.10892Z" transform="translate(-3.74592 -3.59808)"/><path class="a" d="M1241.16587,247.84181a17.60889,17.60889,0,1,1,17.6084-17.6084A17.629,17.629,0,0,1,1241.16587,247.84181Z" transform="translate(-3.74592 -3.59808)"/><path d="M1241.16562,214.124a16.10892,16.10892,0,1,1-16.10894,16.10892,16.12717,16.12717,0,0,1,16.10894-16.10892m0-3a19.10892,19.10892,0,1,0,19.10889,19.10892,19.10892,19.10892,0,0,0-19.10889-19.10892Z" transform="translate(-3.74592 -3.59808)"/><path class="a" d="M1136.07489,275.37006a113.88758,113.88758,0,0,1,30.32592-9.75134,10.51147,10.51147,0,0,0-10.4497-9.50934h-14.52344a10.51148,10.51148,0,0,0-10.5,10.5V278.21C1132.55743,277.23114,1134.26336,276.27973,1136.07489,275.37006Z" transform="translate(-3.74592 -3.59808)"/><path d="M1132.42767,277.33307V266.609a9.01023,9.01023,0,0,1,9-9h14.5238a9.00629,9.00629,0,0,1,8.96448,8.29828q1.47492-.28729,2.969-.54852a12.04107,12.04107,0,0,0-11.93347-10.74976h-14.5238a12.03527,12.03527,0,0,0-12,12v12.53076Q1130.87732,278.21814,1132.42767,277.33307Z" transform="translate(-3.74592 -3.59808)"/><path class="a" d="M1194.92767,263.09027a163.64817,163.64817,0,0,1,17.76172.96613V251.876a10.51148,10.51148,0,0,0-10.5-10.5H1187.666a10.51148,10.51148,0,0,0-10.5,10.5V264.0564A163.64636,163.64636,0,0,1,1194.92767,263.09027Z" transform="translate(-3.74592 -3.59808)"/><path d="M1178.66571,263.88892V251.876a9.01027,9.01027,0,0,1,9-9h14.52368a9.0102,9.0102,0,0,1,9,9v12.01288c1.00683.10022,2.00366.2182,3,.33691V251.876a12.03523,12.03523,0,0,0-12-12h-14.52368a12.03531,12.03531,0,0,0-12,12v12.34979C1176.66217,264.10712,1177.659,263.98914,1178.66571,263.88892Z" transform="translate(-3.74592 -3.59808)"/><path class="a" d="M1253.78033,275.37006c1.81165.90967,3.51746,1.86108,5.14734,2.8399V266.60938a10.51148,10.51148,0,0,0-10.5-10.5h-14.52344a10.5117,10.5117,0,0,0-10.45,9.50934A113.88559,113.88559,0,0,1,1253.78033,275.37006Z" transform="translate(-3.74592 -3.59808)"/><path d="M1224.93939,265.90723a9.006,9.006,0,0,1,8.96435-8.29828h14.52368a9.01016,9.01016,0,0,1,9,9v10.72412q1.55384.88395,3,1.80664V266.609a12.03519,12.03519,0,0,0-12-12h-14.52368a12.04107,12.04107,0,0,0-11.93347,10.74976Q1223.46661,265.61734,1224.93939,265.90723Z" transform="translate(-3.74592 -3.59808)"/><path class="a" d="M1194.92767,266.09027c-44.91553,0-81.32666,18.28321-81.32666,40.83674h162.65307C1276.25408,284.37348,1239.843,266.09027,1194.92767,266.09027Z" transform="translate(-3.74592 -3.59808)"/><path d="M1138.76727,280.73206c14.95093-7.50732,34.89575-11.64179,56.1604-11.64179s41.20947,4.13447,56.16028,11.64179c14.29406,7.17755,22.16613,16.48041,22.16613,26.195h3c0-22.55353-36.41113-40.83674-81.32641-40.83674-44.91553,0-81.32666,18.28321-81.32666,40.83674h3C1116.601,297.21247,1124.4732,287.90961,1138.76727,280.73206Z" transform="translate(-3.74592 -3.59808)"/><path d="M1246.29486,8.59808a7.008,7.008,0,0,1,7,7v145.7895a7.008,7.008,0,0,1-7,7H1143.56024a7.008,7.008,0,0,1-7-7V15.59808a7.008,7.008,0,0,1,7-7h102.73462m0-5H1143.56024a12.03521,12.03521,0,0,0-12,12v145.7895a12.03519,12.03519,0,0,0,12,12h102.73462a12.0352,12.0352,0,0,0,12-12V15.59808a12.03522,12.03522,0,0,0-12-12Z" transform="translate(-3.74592 -3.59808)"/><circle cx="1148.58519" cy="24.89477" r="7.5"/><rect x="1168.02063" y="21.55803" width="73.36714" height="6.67347" rx="3.33673"/><rect x="1168.02063" y="51.55803" width="73.36714" height="6.67347" rx="3.33673"/><rect x="1168.02063" y="81.55803" width="73.36714" height="6.67347" rx="3.33673"/><rect x="1168.02063" y="111.55803" width="73.36714" height="6.67347" rx="3.33673"/><rect x="1168.02063" y="141.55803" width="73.36714" height="6.67347" rx="3.33673"/><path d="M1152.87063,64.5878l3.36539,1.76929a1.15942,1.15942,0,0,0,1.68226-1.22223l-.64273-3.74742a1.15941,1.15941,0,0,1,.33344-1.02624l2.72266-2.65394a1.15941,1.15941,0,0,0-.64256-1.97761l-3.76263-.54674a1.15942,1.15942,0,0,1-.873-.63425l-1.68269-3.40952a1.15942,1.15942,0,0,0-2.07939,0l-1.68269,3.40952a1.15942,1.15942,0,0,1-.873.63425l-3.76263.54674a1.15941,1.15941,0,0,0-.64256,1.97761l2.72266,2.65394a1.15941,1.15941,0,0,1,.33344,1.02624l-.64273,3.74742a1.15942,1.15942,0,0,0,1.68226,1.22223l3.36539-1.76929A1.15939,1.15939,0,0,1,1152.87063,64.5878Z" transform="translate(-3.74592 -3.59808)"/><path d="M1156.17614,80.99284h-7.69007a.8402.8402,0,0,0-.72764.4201l-3.845,6.6598a.84019.84019,0,0,0,0,.8402l3.845,6.6598a.84022.84022,0,0,0,.72764.4201h7.69007a.84022.84022,0,0,0,.72764-.4201l3.845-6.6598a.84019.84019,0,0,0,0-.8402l-3.845-6.6598A.8402.8402,0,0,0,1156.17614,80.99284Z" transform="translate(-3.74592 -3.59808)"/><path d="M1151.60347,111.221l-7.74786,13.41969a.8402.8402,0,0,0,.72763,1.2603H1160.079a.8402.8402,0,0,0,.72763-1.2603l-7.74786-13.41969A.8402.8402,0,0,0,1151.60347,111.221Z" transform="translate(-3.74592 -3.59808)"/><rect x="1141.08519" y="137.39477" width="15" height="15" rx="0.8402"/><path class="k" d="M132.20676,358.80336v.00012l-6.99988-12.124V294.289h-11V311.442h4.53046a1.46942,1.46942,0,0,1,1.46936,1.46936v.00006a1.46942,1.46942,0,0,1-1.46936,1.46936h-4.53046v5.0816h4.53046a1.4694,1.4694,0,0,1,0,2.93879h-4.53046v5.08166h4.53046a1.46939,1.46939,0,0,1,0,2.93878h-4.53046v16.2569l-7.00012,12.12482v-.00055L93.56333,382.43446a2,2,0,0,0,1.73193,3H144.1185a2,2,0,0,0,1.73194-3Z" transform="translate(-3.74592 -3.59808)"/><path class="e" d="M119.70694,216.86146a48.05438,48.05438,0,0,0-48,47.99982h7.99982a40,40,0,0,1,80,0h8.00018A48.05437,48.05437,0,0,0,119.70694,216.86146Z" transform="translate(-3.74592 -3.59808)"/><path class="e" d="M180.70694,271.86146h-122a7.00787,7.00787,0,0,0-7,7v122a7.00818,7.00818,0,0,0,7,7h122a7.00848,7.00848,0,0,0,7-7v-122A7.00818,7.00818,0,0,0,180.70694,271.86146ZM144.11832,392.434H95.2952a9,9,0,0,1-7.79419-13.5l19.70575-34.13141V294.289a3.5,3.5,0,0,1,0-7h25a3.5,3.5,0,1,1,0,7v50.51367L151.91251,378.934A9,9,0,0,1,144.11832,392.434Z" transform="translate(-3.74592 -3.59808)"/><path class="b" d="M119.7068,353.735c-3.30591,0-5.9859,6.804-5.9859,15.197,0,8.39313,2.68,15.197,5.9859,15.197s5.98584-6.8039,5.98584-15.197C125.69264,360.539,123.01271,353.735,119.7068,353.735Zm.00018,28.894c-1.8291,0-4.48584-5.33594-4.48584-13.69727,0-8.36035,2.65674-13.69629,4.48584-13.69629s4.48584,5.33594,4.48584,13.69629C124.19282,377.29313,121.53608,382.62907,119.707,382.62907Z" transform="translate(-3.74592 -3.59808)"/><path class="c" d="M132.86778,361.33356c-1.653-2.863-8.8854-1.78193-16.154,2.41457-7.26866,4.19656-11.821,9.91945-10.168,12.78245s8.88526,1.78194,16.15392-2.41462C129.96825,369.91946,134.52073,364.19656,132.86778,361.33356Zm-25.02289,14.44718c-.91455-1.584,2.37814-6.55282,9.61927-10.73348,7.24027-4.18018,13.1897-4.54735,14.10425-2.9633s-2.37814,6.55282-9.61842,10.733C114.70887,376.99762,108.75945,377.36479,107.84489,375.78074Z" transform="translate(-3.74592 -3.59808)"/><path class="d" d="M106.54576,361.33352c-1.653,2.863,2.8995,8.58595,10.16806,12.78245,7.26866,4.19657,14.501,5.27757,16.154,2.41457s-2.89942-8.58583-10.16808-12.7824C115.43113,359.55164,108.19872,358.47052,106.54576,361.33352Zm25.02307,14.44686c-.91456,1.58405-6.864,1.21688-14.1051-2.96378-7.24028-4.18018-10.533-9.149-9.61842-10.733s6.864-1.21688,14.10426,2.9633C129.19069,369.22756,132.48338,374.19634,131.56883,375.78038Z" transform="translate(-3.74592 -3.59808)"/><path d="M180.70677,264.86132h-122a14,14,0,0,0-14,14v122a14,14,0,0,0,14,14h122a14,14,0,0,0,14-14v-122A14,14,0,0,0,180.70677,264.86132ZM187.707,400.86151a7.00849,7.00849,0,0,1-7,7h-122a7.00818,7.00818,0,0,1-7-7v-122a7.00786,7.00786,0,0,1,7-7h122a7.00817,7.00817,0,0,1,7,7Z" transform="translate(-3.74592 -3.59808)"/><path d="M72.10356,270.926a48.00009,48.00009,0,1,1,95.20679,0h7.05639a55.55279,55.55279,0,0,0,.34-6.0647,55,55,0,0,0-110,0,55.55279,55.55279,0,0,0,.34,6.0647Z" transform="translate(-3.74592 -3.59808)"/><path d="M87.27513,270.926a33,33,0,1,1,64.86365,0h7.10864a40,40,0,1,0-79.0813,0Z" transform="translate(-3.74592 -3.59808)"/><polygon points="128.461 355.205 128.461 288.619 121.461 288.619 121.461 343.081 128.461 355.205"/><polygon points="110.461 343.08 110.461 288.619 103.461 288.619 103.461 355.205 110.461 343.08"/><path d="M151.91252,378.93407,127.501,336.652a8.99147,8.99147,0,0,0-2.29413-2.6278v12.65527l20.64356,35.755a2,2,0,0,1-1.73194,3H95.29527a2,2,0,0,1-1.73193-3L114.20689,346.678V334.024a8.99157,8.99157,0,0,0-2.29437,2.628L87.501,378.93407a9,9,0,0,0,7.79419,13.5h48.82312A9,9,0,0,0,151.91252,378.93407Z" transform="translate(-3.74592 -3.59808)"/><rect x="107.46092" y="323.88478" width="8.99986" height="2.93878" rx="1.46939"/><rect x="107.46092" y="315.86438" width="8.99986" height="2.93878" rx="1.46939"/><rect x="107.46092" y="307.84397" width="8.99986" height="2.93878" rx="1.46939"/><rect x="99.96085" y="283.69086" width="32" height="7" rx="3.5"/><rect class="d" x="1.45218" y="302.21111" width="87.7087" height="14.32653" transform="translate(-73.89002 596.3556) rotate(-149.99999)"/><path class="k" d="M11.31878,286.76764l-.02051-.01172-1.54-.04492.2246-.79785,1.93116.06152.77929.4502-3.89795,6.752-.88281-.50976Z" transform="translate(-3.74592 -3.59808)"/><path class="k" d="M17.73773,293.74128c-1.32569,2.29589-2.90869,3.07128-4.4043,2.208-1.31885-.76172-1.499-2.51367-.23047-4.75879,1.30713-2.26367,3.00342-2.94628,4.37451-2.15527C18.90032,289.85651,18.97894,291.59186,17.73773,293.74128Zm-3.72657-2.0127c-1.01318,1.75586-1.04882,3.06445-.21826,3.54395.93506.54,2.01123-.292,3.00684-2.01661.95947-1.66211,1.16357-2.999.21826-3.54492C16.21771,289.25006,15.07269,289.89069,14.01116,291.72858Z" transform="translate(-3.74592 -3.59808)"/><path class="k" d="M21.98089,292.92292l-.02051-.01172-1.54-.04395.22559-.79883,1.93018.0625.77929.4502-3.89795,6.751-.88281-.50977Z" transform="translate(-3.74592 -3.59808)"/><path class="k" d="M28.39984,299.89753c-1.32569,2.29589-2.90869,3.07031-4.4043,2.207-1.31885-.76172-1.499-2.5127-.23047-4.75879,1.30713-2.26367,3.00342-2.94629,4.37451-2.1543C29.56243,296.01276,29.64105,297.74714,28.39984,299.89753Zm-3.72657-2.0127c-1.01318,1.75488-1.04882,3.06445-.21826,3.54395.93506.54,2.01123-.293,3.00684-2.01661.95947-1.66211,1.16357-2.999.21826-3.54492C26.87982,295.40534,25.7348,296.046,24.67327,297.88483Z" transform="translate(-3.74592 -3.59808)"/><path class="k" d="M32.643,299.07917l-.02051-.0127-1.54-.043.22559-.79883,1.93018.0625.77929.44922-3.898,6.752-.88281-.50977Z" transform="translate(-3.74592 -3.59808)"/><path class="k" d="M39.062,306.0528c-1.3252,2.29687-2.90821,3.07129-4.40381,2.208-1.31885-.76172-1.49854-2.51367-.23047-4.75879,1.30713-2.26367,3.00342-2.94629,4.37451-2.15528C40.225,302.168,40.30316,303.90339,39.062,306.0528Zm-3.72559-2.01172c-1.01367,1.75488-1.04932,3.06348-.21875,3.543.93506.54,2.01172-.292,3.00684-2.0166.95947-1.66211,1.16357-2.999.21826-3.54395C37.54241,301.56159,36.39788,302.20221,35.33636,304.04108Z" transform="translate(-3.74592 -3.59808)"/><path class="k" d="M44.393,309.13092c-1.32519,2.2959-2.9082,3.07129-4.40381,2.207-1.31885-.76075-1.49853-2.5127-.23047-4.75782,1.30713-2.26367,3.00342-2.94726,4.37452-2.15527C45.55609,305.24616,45.63421,306.98151,44.393,309.13092Zm-3.72559-2.01269c-1.01367,1.75586-1.04931,3.06445-.21875,3.54394.93506.54,2.01172-.293,3.00684-2.0166.95947-1.66211,1.16357-2.999.21826-3.54394C42.87347,304.63874,41.72894,305.28034,40.66741,307.11823Z" transform="translate(-3.74592 -3.59808)"/><path class="k" d="M48.63665,308.31256l-.0205-.01171-1.53956-.044.22461-.79785,1.93067.06152.77929.4502-3.89794,6.751-.88282-.50976Z" transform="translate(-3.74592 -3.59808)"/><path class="k" d="M53.96771,311.39069l-.02051-.01172-1.53955-.04394.22559-.79786,1.92968.06153.7793.45019-3.89795,6.751-.88281-.50977Z" transform="translate(-3.74592 -3.59808)"/><path class="k" d="M60.38616,318.3653c-1.32519,2.29492-2.9082,3.07031-4.4038,2.207-1.31885-.76172-1.49854-2.51367-.23047-4.75879,1.30713-2.26367,3.00342-2.94629,4.37451-2.15527C61.54925,314.48053,61.62738,316.21491,60.38616,318.3653Zm-3.72558-2.01367c-1.01367,1.75586-1.04932,3.06445-.21875,3.54492.93506.53906,2.01172-.293,3.00683-2.01758.95948-1.66211,1.16358-2.998.21827-3.54394C58.86712,313.87311,57.7221,314.51374,56.66058,316.35163Z" transform="translate(-3.74592 -3.59808)"/><path class="k" d="M65.71722,321.44245c-1.3252,2.2959-2.9082,3.07129-4.40381,2.208-1.31885-.76172-1.49853-2.51368-.23047-4.75879,1.30713-2.26368,3.00342-2.94629,4.37451-2.15528C66.88031,317.55768,66.95843,319.293,65.71722,321.44245Zm-3.72559-2.0127c-1.01367,1.75586-1.04931,3.06446-.21826,3.54395.93457.54,2.01123-.292,3.00635-2.0166.95947-1.66211,1.16357-2.999.21826-3.54493C64.19818,316.95124,63.05316,317.59186,61.99163,319.42975Z" transform="translate(-3.74592 -3.59808)"/><path class="k" d="M69.96087,320.62409l-.02051-.01172-1.53955-.04395.22461-.79882,1.93115.0625.7793.45019-3.89795,6.751-.8833-.50977Z" transform="translate(-3.74592 -3.59808)"/><path class="k" d="M75.29241,323.70221l-.0205-.01172-1.54-.04394.22558-.79883,1.93018.0625.77978.4502-3.89794,6.75146-.88331-.51025Z" transform="translate(-3.74592 -3.59808)"/><path class="k" d="M81.71136,330.67633c-1.32568,2.29688-2.90869,3.07032-4.4043,2.207-1.31884-.76172-1.499-2.51172-.23047-4.75831,1.30713-2.26367,3.00342-2.94628,4.37452-2.15429C82.874,326.79206,82.95257,328.52643,81.71136,330.67633Zm-3.72656-2.0122c-1.01319,1.75439-1.04883,3.06494-.21778,3.54345.93457.541,2.01075-.293,3.00635-2.01562.95947-1.6626,1.16358-2.99951.21826-3.54541C80.19183,326.18464,79.04632,326.82526,77.9848,328.66413Z" transform="translate(-3.74592 -3.59808)"/><rect class="c" x="150.8744" y="302.19842" width="87.7087" height="14.32653" transform="translate(514.30369 476.31435) rotate(150.00001)"/><path class="k" d="M158.144,327.54255l-.02051.01171-.80859,1.31153-.57813-.59424,1.01953-1.64111.7793-.4502,3.89746,6.75195-.88281.50977Z" transform="translate(-3.74592 -3.59808)"/><path class="k" d="M167.393,325.47028c1.32617,2.2959,1.20508,4.05469-.29,4.918-1.31933.76172-2.92578.042-4.23633-2.17969-1.30761-2.26367-1.0498-4.07422.32129-4.86572C164.6098,322.52106,166.15179,323.32087,167.393,325.47028Zm-3.60547,2.2207c1.01367,1.75586,2.12891,2.44043,2.959,1.96094.93554-.53955.75293-1.88769-.24219-3.61182-.96-1.66211-2.01563-2.50732-2.96094-1.96142C162.74261,324.54059,162.726,325.85309,163.78753,327.691Z" transform="translate(-3.74592 -3.59808)"/><path class="k" d="M168.80609,321.3863l-.02051.0122L167.978,322.71l-.5791-.59424,1.01953-1.64112.7793-.4497,3.89746,6.751-.88281.50977Z" transform="translate(-3.74592 -3.59808)"/><path class="k" d="M174.13714,318.30866l-.02051.01221-.80761,1.31152-.57911-.59473,1.01856-1.64062.7793-.4502,3.89843,6.75147-.88281.50976Z" transform="translate(-3.74592 -3.59808)"/><path class="k" d="M183.38616,316.23688c1.3252,2.2959,1.20606,4.0542-.29,4.918-1.31836.76123-2.92579.041-4.23633-2.18018-1.30664-2.26367-1.05078-4.07373.32031-4.86572C180.60394,313.28766,182.145,314.087,183.38616,316.23688Zm-3.60546,2.2207c1.01269,1.75538,2.1289,2.44043,2.96,1.96094.93457-.54.752-1.88769-.24414-3.6123-.959-1.66211-2.01465-2.50684-2.96-1.96094C178.73675,315.30719,178.71917,316.61921,179.7807,318.45758Z" transform="translate(-3.74592 -3.59808)"/><path class="k" d="M188.7182,313.15876c1.32519,2.29589,1.20507,4.0542-.29,4.918-1.31934.76123-2.92676.041-4.23633-2.18018-1.30762-2.26367-1.05078-4.07373.32031-4.86572C185.935,310.20954,187.477,311.00885,188.7182,313.15876Zm-3.60645,2.2207c1.01367,1.75537,2.12891,2.44043,2.96,1.96094.93457-.54.75195-1.8877-.24316-3.61231-.959-1.66211-2.01563-2.50683-2.96094-1.96094C184.06781,312.22907,184.05023,313.54108,185.11175,315.37946Z" transform="translate(-3.74592 -3.59808)"/><path class="k" d="M190.13128,309.07477l-.02148.01172-.80762,1.31152-.57812-.59423,1.01855-1.64112.7793-.4497,3.89843,6.75146-.88281.50977Z" transform="translate(-3.74592 -3.59808)"/><path class="k" d="M195.46136,305.99665l-.01953.0122-.80859,1.31153-.57813-.59424,1.01855-1.64111.7793-.44971,3.89746,6.751-.88281.50976Z" transform="translate(-3.74592 -3.59808)"/><path class="k" d="M200.79339,302.919l-.02148.01221-.80762,1.31152-.57813-.59473,1.01856-1.64062.7793-.4502,3.89843,6.75147-.88281.50976Z" transform="translate(-3.74592 -3.59808)"/><path class="k" d="M210.04241,300.84723c1.3252,2.2959,1.20508,4.0542-.29,4.918-1.31934.76123-2.92676.041-4.23633-2.18017-1.30762-2.26368-1.05078-4.07373.32031-4.86573C207.25921,297.898,208.8012,298.69733,210.04241,300.84723Zm-3.60644,2.22071c1.01367,1.75537,2.12891,2.44043,2.96,1.96093.93457-.54.75195-1.88769-.24316-3.6123-.959-1.66211-2.01563-2.50684-2.96094-1.96094C205.393,299.91755,205.37445,301.22956,206.436,303.06794Z" transform="translate(-3.74592 -3.59808)"/><path class="k" d="M215.37347,297.76911c1.32519,2.2959,1.20508,4.05469-.291,4.918-1.31836.76172-2.92578.0415-4.23632-2.17969-1.30664-2.26367-1.04981-4.07422.32128-4.86572C212.59027,294.81989,214.13226,295.61969,215.37347,297.76911Zm-3.60645,2.2207c1.01368,1.75586,2.12989,2.44092,2.96,1.96094.93554-.53955.75195-1.8877-.24317-3.61182-.96-1.66211-2.01465-2.50732-2.96-1.96142C210.72308,296.83942,210.7055,298.15192,211.767,299.98981Z" transform="translate(-3.74592 -3.59808)"/><path class="k" d="M216.78558,293.68512l-.01953.01221-.8086,1.31152-.57812-.59423,1.01953-1.64112.7793-.4497,3.89746,6.751-.88379.50977Z" transform="translate(-3.74592 -3.59808)"/><path class="k" d="M222.11761,290.607l-.02051.01221-.80761,1.31152-.57911-.59424,1.01856-1.64111.78027-.44971,3.89746,6.751-.88281.50976Z" transform="translate(-3.74592 -3.59808)"/><path class="k" d="M231.36663,288.53571c1.3252,2.2959,1.20606,4.05371-.29,4.91748-1.31835.76123-2.92578.0415-4.23632-2.18018-1.30664-2.26367-1.05078-4.07373.32031-4.86523C228.58441,285.58649,230.12542,286.38532,231.36663,288.53571Zm-3.60547,2.2207c1.0127,1.75489,2.12891,2.44043,2.96,1.96094.93457-.54.752-1.88818-.24414-3.6123-.959-1.66211-2.01465-2.50684-2.96-1.96143C226.71722,287.60553,226.69964,288.91755,227.76116,290.75641Z" transform="translate(-3.74592 -3.59808)"/><rect class="b" x="93.94181" y="413.32053" width="51.52969" height="14.32653" transform="translate(-304.52326 536.59165) rotate(-89.9999)"/><path class="k" d="M122.311,397.7945v-.02442l-.73193-1.35546.80371-.20411.91162,1.70313v.90039h-7.7959V397.7945Z" transform="translate(-3.74592 -3.59808)"/><path class="k" d="M119.4804,406.8404c-2.65088,0-4.11377-.9834-4.11377-2.71094,0-1.52246,1.42725-2.55469,4.00586-2.57813,2.61426,0,4.05371,1.127,4.05371,2.71C123.4262,405.90485,121.96282,406.8404,119.4804,406.8404Zm-.12011-4.2334c-2.02686,0-3.17823.623-3.17823,1.583,0,1.0791,1.25928,1.59472,3.25,1.59472,1.91895,0,3.17871-.49121,3.17871-1.583C122.61077,403.2779,121.48333,402.607,119.36029,402.607Z" transform="translate(-3.74592 -3.59808)"/><path class="k" d="M122.311,410.106v-.02441l-.73193-1.35547.80371-.2041.91162,1.70312v.90039h-7.7959V410.106Z" transform="translate(-3.74592 -3.59808)"/><path class="k" d="M119.4804,419.15192c-2.65088,0-4.11377-.9834-4.11377-2.71094,0-1.52246,1.42725-2.55468,4.00586-2.57812,2.61426,0,4.05371,1.12695,4.05371,2.71C123.4262,418.21637,121.96282,419.15192,119.4804,419.15192Zm-.12011-4.2334c-2.02686,0-3.17823.623-3.17823,1.583,0,1.0791,1.25928,1.59473,3.25,1.59473,1.91895,0,3.17871-.49121,3.17871-1.583C122.61077,415.58942,121.48333,414.91852,119.36029,414.91852Z" transform="translate(-3.74592 -3.59808)"/><path class="k" d="M122.311,422.41755v-.02442l-.73193-1.35547.80371-.2041.91162,1.70313v.90039h-7.7959v-1.01953Z" transform="translate(-3.74592 -3.59808)"/><path class="k" d="M119.4804,431.46344c-2.65088,0-4.11377-.98339-4.11377-2.71,0-1.52343,1.42725-2.55468,4.00586-2.5791,2.61426,0,4.05371,1.12793,4.05371,2.71094C123.4262,430.5279,121.96282,431.46344,119.4804,431.46344Zm-.12011-4.23339c-2.02686,0-3.17823.624-3.17823,1.583,0,1.08008,1.25928,1.59571,3.25,1.59571,1.91895,0,3.17871-.49219,3.17871-1.583C122.61077,427.90192,121.48333,427.23005,119.36029,427.23005Z" transform="translate(-3.74592 -3.59808)"/><path class="k" d="M122.311,434.72907v-.02344l-.73193-1.35547.80371-.2041.91162,1.70313v.89941h-7.7959v-1.01953Z" transform="translate(-3.74592 -3.59808)"/><path class="k" d="M119.4804,443.775c-2.65088,0-4.11377-.9834-4.11377-2.71,0-1.52344,1.42725-2.55469,4.00586-2.57911,2.61426,0,4.05371,1.12793,4.05371,2.71094C123.4262,442.83942,121.96282,443.775,119.4804,443.775Zm-.12011-4.2334c-2.02686,0-3.17823.624-3.17823,1.583,0,1.08007,1.25928,1.5957,3.25,1.5957,1.91895,0,3.17871-.49219,3.17871-1.583C122.61077,440.21344,121.48333,439.54157,119.36029,439.54157Z" transform="translate(-3.74592 -3.59808)"/><path class="d" d="M312.95971,286.14851c-.60749-11.42511-1.33709-25.15843-1.215-35.36741h-.36479c-2.79551,9.60149-6.19851,19.81048-10.33033,31.11347l-14.46292,39.74231H278.565l-13.24718-39.01271c-3.88913-11.54645-7.17078-22.12023-9.48015-31.84307h-.24269c-.24269,10.209-.85094,23.9423-1.57977,36.21834l-2.188,35.12358H241.74027l5.7116-81.91494H260.9425l13.97678,39.62058c3.403,10.08764,6.19774,19.08088,8.26442,27.58875h.36479c2.06592-8.26441,4.98277-17.25842,8.62845-27.58875l14.58426-39.62058h13.49064l5.10487,81.91494H315.02562Z" transform="translate(-3.74592 -3.59808)"/><path class="b" d="M341.63751,241.18036a122.52225,122.52225,0,0,1,20.29662-1.58053c10.45167,0,18.1086,2.43071,22.97,6.806,4.49663,3.88913,7.17079,9.84418,7.17079,17.13708,0,7.41347-2.188,13.24718-6.31985,17.50149-5.591,5.955-14.7056,8.99325-25.03669,8.99325a36.361,36.361,0,0,1-8.50711-.72959v32.815H341.63751Zm10.57378,39.49924a35.47394,35.47394,0,0,0,8.75056.85017c12.761,0,20.53931-6.19812,20.53931-17.50149,0-10.81647-7.65693-16.04193-19.32434-16.04193a44.37536,44.37536,0,0,0-9.96553.85018Z" transform="translate(-3.74592 -3.59808)"/><path class="c" d="M463.5363,319.44886c-3.88914,1.94456-11.66741,3.88913-21.63371,3.88913-23.09136,0-40.47113-14.58426-40.47113-41.44342,0-25.64457,17.37977-43.02357,42.7805-43.02357,10.209,0,16.65018,2.18726,19.44568,3.64568l-2.55205,8.62921a38.51555,38.51555,0,0,0-16.52883-3.403c-19.203,0-31.964,12.2749-31.964,33.78687,0,20.05394,11.54606,32.93632,31.47789,32.93632,6.44119,0,13.00372-1.33632,17.25766-3.403Z" transform="translate(-3.74592 -3.59808)"/><path class="l" d="M243.92753,333.98733h10.57378V407.03h35.00223v8.8719h-45.576Z" transform="translate(-3.74592 -3.59808)"/><path class="l" d="M333.496,415.90188l-.85094-7.41347h-.364a21.91112,21.91112,0,0,1-17.98725,8.75056c-11.91087,0-17.98726-8.38576-17.98726-16.89363,0-14.21947,12.63969-21.99774,35.36626-21.87639v-1.21574c0-4.86142-1.33632-13.612-13.36852-13.612a29.3033,29.3033,0,0,0-15.3131,4.376l-2.43147-7.04944c4.86142-3.1603,11.91086-5.22622,19.32434-5.22622,17.98725,0,22.36253,12.27566,22.36253,24.06442v21.99773a82.85821,82.85821,0,0,0,.97229,14.09812Zm-1.57978-30.01946c-11.66741-.24269-24.91459,1.82322-24.91459,13.24794,0,6.92734,4.618,10.20823,10.08688,10.20823a14.63631,14.63631,0,0,0,14.22023-9.84419,11.17574,11.17574,0,0,0,.60748-3.403Z" transform="translate(-3.74592 -3.59808)"/><path class="l" d="M359.01575,415.90188c.24346-4.01048.48615-9.96553.48615-15.19174V329.61129h10.57378v36.94679h.24269c3.76779-6.56253,10.57378-10.81647,20.05393-10.81647,14.58426,0,24.91459,12.15355,24.79324,30.01947,0,21.02545-13.24718,31.47789-26.37378,31.47789-8.5071,0-15.31309-3.28165-19.68837-11.05993h-.3648l-.48614,9.72284Zm11.05993-23.5775a20.00342,20.00342,0,0,0,.48614,3.88913c2.06591,7.41348,8.26441,12.51759,16.04269,12.51759,11.18126,0,17.86591-9.11536,17.86591-22.60523,0-11.78951-6.07716-21.87639-17.50112-21.87639-7.29213,0-14.09812,4.98277-16.28614,13.12584a21.09729,21.09729,0,0,0-.60748,4.37528Z" transform="translate(-3.74592 -3.59808)"/><path d="M928.17913,334.65387a122.96271,122.96271,0,0,1,20.37305-1.58593c10.49219,0,18.17773,2.43945,23.05664,6.83105,4.51367,3.9043,7.19727,9.88184,7.19727,17.20117,0,7.44239-2.19532,13.29785-6.34375,17.56739-5.61133,5.97753-14.76075,9.02734-25.12989,9.02734a36.56736,36.56736,0,0,1-8.54-.73145v32.93848H928.17913Zm10.61328,39.64746a35.57423,35.57423,0,0,0,8.78321.8545c12.81054,0,20.61719-6.22168,20.61719-17.56739,0-10.85742-7.68555-16.10351-19.39649-16.10351a44.51773,44.51773,0,0,0-10.00391.85449Z" transform="translate(-3.74592 -3.59808)"/><path d="M990.76605,375.2779c0-6.9541-.12207-12.93164-.48828-18.4209h9.39355l.36621,11.58887h.48731c2.68457-7.92969,9.15039-12.93164,16.34765-12.93164a11.59866,11.59866,0,0,1,3.04981.36621v10.126a16.11585,16.11585,0,0,0-3.65918-.36621c-7.56446,0-12.93164,5.7334-14.39649,13.78516a30.31,30.31,0,0,0-.4873,5.00195v31.47461H990.76605Z" transform="translate(-3.74592 -3.59808)"/><path d="M1082.87347,385.89118c0,21.83691-15.127,31.35254-29.40039,31.35254-15.98145,0-28.30274-11.71094-28.30274-30.376,0-19.76367,12.93067-31.35351,29.27832-31.35351C1071.4057,355.51423,1082.87347,367.83649,1082.87347,385.89118Zm-46.8457.61035c0,12.93164,7.44238,22.69043,17.93261,22.69043,10.248,0,17.9336-9.6377,17.9336-22.93457,0-10.00391-5.002-22.69141-17.68946-22.69141S1036.02777,375.2779,1036.02777,386.50153Z" transform="translate(-3.74592 -3.59808)"/><path d="M1082.02288,432.981c4.87891-.36621,9.14844-1.708,11.71094-4.51367,2.92774-3.416,4.02539-8.05176,4.02539-22.20312V356.857h10.73633v53.55566c0,11.4668-1.83008,18.90821-7.07617,24.27637-4.75781,4.75781-12.56543,6.71-18.29883,6.71Zm27.69239-92.71582c.12207,3.53809-2.44043,6.58789-6.71,6.58789a6.4099,6.4099,0,0,1-6.5879-6.58789,6.57266,6.57266,0,0,1,6.832-6.71C1107.15374,333.55524,1109.71527,336.484,1109.71527,340.2652Z" transform="translate(-3.74592 -3.59808)"/><path d="M1132.04046,388.33161c.24414,14.5166,9.51563,20.49512,20.252,20.49512,7.68555,0,12.32032-1.34278,16.34668-3.05079l1.83008,7.68653c-3.78222,1.707-10.24707,3.65918-19.6416,3.65918-18.17676,0-29.03418-11.95508-29.03418-29.7666s10.49121-31.84082,27.69238-31.84082c19.27539,0,24.39844,16.958,24.39844,27.81542a40.532,40.532,0,0,1-.36523,5.002Zm31.47461-7.68653c.12207-6.83105-2.80566-17.44433-14.88281-17.44433-10.85742,0-15.61524,10.00293-16.46875,17.44433Z" transform="translate(-3.74592 -3.59808)"/><path d="M1229.27288,413.70563c-2.80664,1.46387-9.02832,3.416-16.958,3.416-17.81153,0-29.40039-12.07715-29.40039-30.13184,0-18.17773,12.44335-31.35351,31.71777-31.35351a35.88883,35.88883,0,0,1,14.88379,3.0498l-2.44043,8.2959c-2.56055-1.46387-6.58692-2.80567-12.44336-2.80567-13.541,0-20.86035,10.00293-20.86035,22.3252,0,13.66309,8.78418,22.08105,20.49511,22.08105a30.50638,30.50638,0,0,0,13.17579-2.92773Z" transform="translate(-3.74592 -3.59808)"/><path d="M1256.35491,339.899v16.958h15.3711v8.17285h-15.3711v31.84082c0,7.31934,2.07422,11.46777,8.05274,11.46777a23.8647,23.8647,0,0,0,6.2207-.73242l.48828,8.05176a26.26778,26.26778,0,0,1-9.51562,1.46387c-5.002,0-9.02735-1.58594-11.58985-4.51367-3.04882-3.17188-4.14746-8.418-4.14746-15.3711v-32.207h-9.14941V356.857h9.14941V342.70563Z" transform="translate(-3.74592 -3.59808)"/><line class="m" x1="562.66039" y1="374.53327" x2="794.91472" y2="374.53327"/><polygon class="l" points="513.237 374.533 582.881 402.991 566.355 374.533 582.881 346.082 513.237 374.533"/><polygon class="l" points="844.339 374.533 774.694 402.991 791.22 374.533 774.694 346.082 844.339 374.533"/></svg>